<svg xmlns="http://www.w3.org/2000/svg" xmlns:xlink="http://www.w3.org/1999/xlink" width="500" zoomAndPan="magnify" viewBox="0 0 375 374.999991" height="500" preserveAspectRatio="xMidYMid meet" version="1.0"><defs><g/><clipPath id="d9927c2e99"><rect x="0" width="333" y="0" height="282"/></clipPath></defs><rect x="-37.5" width="450" fill="#ffffff" y="-37.499999" height="449.999989" fill-opacity="1"/><rect x="-37.5" width="450" fill="#007a3f" y="-37.499999" height="449.999989" fill-opacity="1"/><g transform="matrix(1, 0, 0, 1, 21, 46)"><g clip-path="url(#d9927c2e99)"><g fill="#ffffff" fill-opacity="1"><g transform="translate(1.111945, 223.310822)"><g><path d="M 71.484375 2.296875 C 59.066406 2.296875 47.070312 0.535156 35.5 -2.984375 C 23.9375 -6.515625 14.785156 -11.191406 8.046875 -17.015625 L 18.390625 -40.21875 C 24.972656 -35.007812 33.050781 -30.757812 42.625 -27.46875 C 52.207031 -24.175781 61.828125 -22.53125 71.484375 -22.53125 C 83.429688 -22.53125 92.351562 -24.441406 98.25 -28.265625 C 104.15625 -32.097656 107.109375 -37.15625 107.109375 -43.4375 C 107.109375 -48.03125 105.457031 -51.820312 102.15625 -54.8125 C 98.863281 -57.800781 94.6875 -60.140625 89.625 -61.828125 C 84.570312 -63.515625 77.679688 -65.429688 68.953125 -67.578125 C 56.691406 -70.484375 46.769531 -73.390625 39.1875 -76.296875 C 31.601562 -79.210938 25.09375 -83.773438 19.65625 -89.984375 C 14.21875 -96.191406 11.5 -104.582031 11.5 -115.15625 C 11.5 -124.039062 13.910156 -132.117188 18.734375 -139.390625 C 23.554688 -146.671875 30.832031 -152.457031 40.5625 -156.75 C 50.289062 -161.039062 62.207031 -163.1875 76.3125 -163.1875 C 86.113281 -163.1875 95.765625 -161.957031 105.265625 -159.5 C 114.765625 -157.050781 122.960938 -153.53125 129.859375 -148.9375 L 120.4375 -125.71875 C 113.382812 -129.863281 106.023438 -133.003906 98.359375 -135.140625 C 90.703125 -137.285156 83.273438 -138.359375 76.078125 -138.359375 C 64.273438 -138.359375 55.5 -136.367188 49.75 -132.390625 C 44.007812 -128.410156 41.140625 -123.125 41.140625 -116.53125 C 41.140625 -111.9375 42.785156 -108.179688 46.078125 -105.265625 C 49.378906 -102.359375 53.554688 -100.0625 58.609375 -98.375 C 63.660156 -96.6875 70.554688 -94.769531 79.296875 -92.625 C 91.242188 -89.863281 101.046875 -86.988281 108.703125 -84 C 116.367188 -81.019531 122.921875 -76.460938 128.359375 -70.328125 C 133.804688 -64.203125 136.53125 -55.929688 136.53125 -45.515625 C 136.53125 -36.617188 134.113281 -28.570312 129.28125 -21.375 C 124.457031 -14.175781 117.140625 -8.429688 107.328125 -4.140625 C 97.523438 0.148438 85.578125 2.296875 71.484375 2.296875 Z M 71.484375 2.296875 "/></g></g></g><g fill="#ffffff" fill-opacity="1"><g transform="translate(145.679725, 223.310822)"><g><path d="M 164.5625 -160.890625 L 164.5625 0 L 134.6875 0 L 134.6875 -68.953125 L 51.484375 -68.953125 L 51.484375 0 L 21.609375 0 L 21.609375 -160.890625 L 51.484375 -160.890625 L 51.484375 -94.46875 L 134.6875 -94.46875 L 134.6875 -160.890625 Z M 164.5625 -160.890625 "/></g></g></g></g></g></svg>